<svg xmlns="http://www.w3.org/2000/svg" version="1.1" xmlns:xlink="http://www.w3.org/1999/xlink" xmlns:svgjs="http://svgjs.dev/svgjs" width="1000" height="467" viewBox="0 0 1000 467"><g transform="matrix(1,0,0,1,-0.6060606060606233,-0.5351567567568054)"><svg viewBox="0 0 396 185" data-background-color="#333366" preserveAspectRatio="xMidYMid meet" height="467" width="1000" xmlns="http://www.w3.org/2000/svg" xmlns:xlink="http://www.w3.org/1999/xlink"><g id="tight-bounds" transform="matrix(1,0,0,1,0.2400000000000091,0.2120000000000175)"><svg viewBox="0 0 395.52 184.57599999999996" height="184.57599999999996" width="395.52"><g><svg viewBox="0 0 395.52 184.57599999999996" height="184.57599999999996" width="395.52"><g><svg viewBox="0 0 395.52 184.57599999999996" height="184.57599999999996" width="395.52"><g><svg viewBox="0 0 395.52 184.57599999999996" height="184.57599999999996" width="395.52"><g><svg viewBox="0 0 395.52 184.57599999999996" height="184.57599999999996" width="395.52"><g transform="matrix(1,0,0,1,0,0)"><svg width="395.52" viewBox="0 -50 93.75 43.75" height="184.57599999999996" data-palette-color="#ffffff"><path d="M12.5-6.25L0-6.25 0-50 12.5-50 12.5-43.75 18.75-43.75 18.75-37.5 25-37.5 25-31.25 31.25-31.25 31.25-50 43.75-50 43.75-6.25 31.25-6.25 31.25-18.75 25-18.75 25-25 18.75-25 18.75-31.25 12.5-31.25 12.5-6.25ZM81.25-6.25L50-6.25 50-50 81.25-50 81.25-43.75 87.5-43.75 87.5-37.5 93.75-37.5 93.75-18.75 87.5-18.75 87.5-12.5 81.25-12.5 81.25-6.25ZM62.5-43.75L62.5-12.5 75-12.5 75-18.75 81.25-18.75 81.25-37.5 75-37.5 75-43.75 62.5-43.75Z" opacity="1" transform="matrix(1,0,0,1,0,0)" fill="#ffffff" class="undefined-text-0" data-fill-palette-color="primary" id="text-0"></path></svg></g></svg></g></svg></g></svg></g><g></g></svg></g><defs></defs></svg><rect width="395.52" height="184.57599999999996" fill="none" stroke="none" visibility="hidden"></rect></g></svg></g></svg>
